<svg xmlns="http://www.w3.org/2000/svg" version="1.1" xmlns:xlink="http://www.w3.org/1999/xlink" xmlns:svgjs="http://svgjs.dev/svgjs" width="1500" height="935" viewBox="0 0 1500 935"><g transform="matrix(1,0,0,1,-0.9090909090909918,0.3785425101216333)"><svg viewBox="0 0 396 247" data-background-color="#000000" preserveAspectRatio="xMidYMid meet" height="935" width="1500" xmlns="http://www.w3.org/2000/svg" xmlns:xlink="http://www.w3.org/1999/xlink"><g id="tight-bounds" transform="matrix(1,0,0,1,0.2400000000000091,-0.10000000000002274)"><svg viewBox="0 0 395.52 247.2" height="247.2" width="395.52"><rect width="395.52" height="247.20000000000007" fill="url(#7cb20708-a2ad-4909-b535-af56c87270c3)" mask="url(#6e05c97d-aa9f-4eaa-91c4-6d9a404cb9f4)" data-fill-palette-color="tertiary"></rect><g><svg></svg></g><g><svg viewBox="0 0 395.52 247.2" height="247.2" width="395.52"><g transform="matrix(1,0,0,1,76.4869365977565,47.215199999999996)"><svg viewBox="0 0 242.546126804487 152.7696" height="152.7696" width="242.546126804487"><g><svg viewBox="0 0 242.546126804487 152.7696" height="152.7696" width="242.546126804487"><g><svg viewBox="0 0 244.43135999999998 153.9570290675332" height="152.7696" width="242.546126804487"><g><svg viewBox="0 0 244.43135999999998 153.9570290675332" height="153.9570290675332" width="244.43135999999998"><g id="textblocktransform"><svg viewBox="0 0 244.43135999999998 153.9570290675332" height="153.9570290675332" width="244.43135999999998" id="textblock"><g><svg viewBox="0 0 244.43135999999998 83.03706486008836" height="83.03706486008836" width="244.43135999999998"><g transform="matrix(1,0,0,1,0,0)"><svg width="244.43135999999998" viewBox="2.25 -33.95 101.84 34.6" height="83.03706486008836" data-palette-color="url(#74a60877-fb28-4c8e-a458-251cbb791907)"></svg></g></svg></g><g transform="matrix(1,0,0,1,0,102.64012298399858)"><svg viewBox="0 0 244.43135999999998 51.31690608353461" height="51.31690608353461" width="244.43135999999998"><g transform="matrix(1,0,0,1,0,0)"><svg width="244.43135999999998" viewBox="3.7 -37.15 225.3 47.3" height="51.31690608353461" data-palette-color="url(#67fac3eb-25dc-48e4-bb77-7faff3dee534)"></svg></g></svg></g></svg></g></svg></g></svg></g></svg></g></svg></g><g><path d="M244.873 0c68.262 0 123.6 55.338 123.6 123.6 0 68.262-55.338 123.6-123.6 123.6-34.781 0-66.207-14.367-88.667-37.489h5.257c21.579 20.906 50.992 33.774 83.41 33.774 66.21 0 119.885-53.674 119.885-119.885 0-66.21-53.674-119.885-119.885-119.885-32.418 0-61.832 12.868-83.41 33.774l-5.257 0c22.46-23.123 53.886-37.489 88.667-37.489z" fill="url(#7cb20708-a2ad-4909-b535-af56c87270c3)" stroke="transparent" data-fill-palette-color="tertiary"></path></g></svg></g><defs></defs><mask id="171a2c72-a953-4867-b159-bed86dd7bb0b"><g id="SvgjsG6284"><svg viewBox="0 0 395.52 247.2" height="247.2" width="395.52"><g><svg></svg></g><g><svg viewBox="0 0 395.52 247.2" height="247.2" width="395.52"><g transform="matrix(1,0,0,1,76.4869365977565,47.215199999999996)"><svg viewBox="0 0 242.546126804487 152.7696" height="152.7696" width="242.546126804487"><g><svg viewBox="0 0 242.546126804487 152.7696" height="152.7696" width="242.546126804487"><g><svg viewBox="0 0 244.43135999999998 153.9570290675332" height="152.7696" width="242.546126804487"><g><svg viewBox="0 0 244.43135999999998 153.9570290675332" height="153.9570290675332" width="244.43135999999998"><g id="SvgjsG6283"><svg viewBox="0 0 244.43135999999998 153.9570290675332" height="153.9570290675332" width="244.43135999999998" id="SvgjsSvg6282"><g><svg viewBox="0 0 244.43135999999998 83.03706486008836" height="83.03706486008836" width="244.43135999999998"><g transform="matrix(1,0,0,1,0,0)"><svg width="244.43135999999998" viewBox="2.25 -33.95 101.84 34.6" height="83.03706486008836" data-palette-color="url(#74a60877-fb28-4c8e-a458-251cbb791907)"><path d="M12.3 0.65L12.3 0.65Q9.35 0.65 6.73 0 4.1-0.65 2.25-1.75L2.25-1.75 2.85-8.45Q5.1-7.05 7.58-6.28 10.05-5.5 12.15-5.5L12.15-5.5Q14.55-5.5 16.05-6.5 17.55-7.5 17.55-9.15L17.55-9.15Q17.55-10.35 16.8-11.03 16.05-11.7 14.85-12.2 13.65-12.7 12.2-13.3L12.2-13.3Q10.55-14 8.83-14.75 7.1-15.5 5.63-16.57 4.15-17.65 3.23-19.35 2.3-21.05 2.3-23.65L2.3-23.65Q2.3-28.4 5.55-31.18 8.8-33.95 14.6-33.95L14.6-33.95Q19.05-33.95 23.6-32.15L23.6-32.15 22.5-25.55Q20.65-26.6 18.53-27.2 16.4-27.8 14.5-27.8L14.5-27.8Q12.15-27.8 10.85-26.88 9.55-25.95 9.55-24.4L9.55-24.4Q9.55-22.95 10.63-22.18 11.7-21.4 13.35-20.7L13.35-20.7Q15-20 16.98-19.28 18.95-18.55 20.73-17.43 22.5-16.3 23.65-14.43 24.8-12.55 24.8-9.6L24.8-9.6Q24.8-4.75 21.53-2.05 18.25 0.65 12.3 0.65ZM38.2 0L30.95 0 30.95-33.3 38.2-33.3 38.2 0ZM61.14 0.65L61.14 0.65Q53.2 0.65 48.67-3.65 44.14-7.95 44.14-15.8L44.14-15.8Q44.14-21.25 46.27-25.28 48.39-29.3 52.27-31.55 56.14-33.8 61.3-33.8L61.3-33.8Q63.45-33.8 65.44-33.4 67.44-33 69.3-32.3L69.3-32.3 67.94-25.85Q66.3-26.6 64.64-27 63-27.4 61.34-27.4L61.34-27.4Q56.74-27.4 54.12-24.4 51.49-21.4 51.49-16.5L51.49-16.5Q51.49-11.45 54.3-8.65 57.09-5.85 62.05-5.85L62.05-5.85Q63.55-5.85 65.17-6.13 66.8-6.4 68.34-6.9L68.34-6.9 69.44-0.75Q65.8 0.65 61.14 0.65ZM82.59 0L75.29 0 75.29-33.3 82.59-33.3 82.59-20.4 96.74-20.4 96.74-33.3 104.09-33.3 104.09 0 96.74 0 96.74-14.2 82.59-14.2 82.59 0Z" opacity="1" transform="matrix(1,0,0,1,0,0)" fill="white" class="wordmark-text-0" id="SvgjsPath6281"></path></svg></g></svg></g><g transform="matrix(1,0,0,1,0,102.64012298399858)"><svg viewBox="0 0 244.43135999999998 51.31690608353461" height="51.31690608353461" width="244.43135999999998"><g transform="matrix(1,0,0,1,0,0)"><svg width="244.43135999999998" viewBox="3.7 -37.15 225.3 47.3" height="51.31690608353461" data-palette-color="url(#67fac3eb-25dc-48e4-bb77-7faff3dee534)"><path d="M19.25 0L19.1-3.6 18.8-3.6Q18.05-1.65 16.35-0.63 14.65 0.4 11.4 0.4L11.4 0.4Q8.15 0.4 6.5-0.6 4.85-1.6 4.28-3.65 3.7-5.7 3.7-9.4L3.7-9.4 3.7-25.5 7.5-25.5 7.5-10.8Q7.5-7.2 7.9-5.65 8.3-4.1 9.38-3.6 10.45-3.1 12.95-3.1L12.95-3.1Q15.7-3.1 16.95-4.13 18.2-5.15 18.53-6.98 18.85-8.8 18.85-12.25L18.85-12.25 18.85-25.5 22.65-25.5 22.65 0 19.25 0ZM48.05 0L48.05-14.7Q48.05-18.35 47.67-19.88 47.3-21.4 46.22-21.9 45.15-22.4 42.65-22.4L42.65-22.4Q39.9-22.4 38.62-21.38 37.35-20.35 37.02-18.5 36.7-16.65 36.7-13.25L36.7-13.25 36.7 0 32.9 0 32.9-25.5 36.3-25.5 36.5-21.9 36.75-21.9Q37.5-23.85 39.22-24.88 40.95-25.9 44.2-25.9L44.2-25.9Q47.45-25.9 49.07-24.9 50.7-23.9 51.27-21.85 51.85-19.8 51.85-16.1L51.85-16.1 51.85 0 48.05 0ZM66-32.8L61.95-32.8 61.95-37.15 66-37.15 66-32.8ZM65.85 0L62.05 0 62.05-25.5 65.85-25.5 65.85 0ZM81.75 0L77.95 0 77.95-22.2 73.5-22.2 73.5-25.5 77.95-25.5 77.95-32.9 81.75-32.9 81.75-25.5 87-25.5 87-22.2 81.75-22.2 81.75 0ZM103.25 10.15Q99.45 10.15 95.65 9.75L95.65 9.75 95.65 6.6Q99.75 6.85 102.45 6.85L102.45 6.85Q105.8 6.85 107.32 6.03 108.85 5.2 109.3 3.43 109.75 1.65 109.75-2.1L109.75-2.1 109.75-3.4 109.5-3.4Q108.85-1.7 107.17-0.73 105.5 0.25 102.25 0.25L102.25 0.25Q98.95 0.25 97.32-0.78 95.7-1.8 95.15-3.9 94.6-6 94.6-9.9L94.6-9.9 94.6-25.5 98.4-25.5 98.4-10.85Q98.4-7.25 98.8-5.7 99.2-4.15 100.27-3.65 101.35-3.15 103.85-3.15L103.85-3.15Q106.6-3.15 107.85-4.2 109.1-5.25 109.42-7.08 109.75-8.9 109.75-12.35L109.75-12.35 109.75-25.5 113.55-25.5 113.55-3.3Q113.55 2 112.82 4.78 112.1 7.55 109.92 8.85 107.75 10.15 103.25 10.15L103.25 10.15ZM141.65-19.1L150.5-19.1 150.5-15.7 145.45-15.7 145.45-0.5Q143.9-0.15 141.12 0.13 138.35 0.4 135.85 0.4L135.85 0.4Q130.55 0.4 127.77-0.7 125-1.8 124.02-3.83 123.05-5.85 123.05-9.2L123.05-9.2Q123.05-13.15 124.37-14.93 125.7-16.7 128.55-17.45L128.55-17.45 128.55-17.65Q125.85-18.4 124.57-20.25 123.3-22.1 123.3-25.75L123.3-25.75Q123.3-28.75 124.35-30.7 125.4-32.65 128.15-33.73 130.9-34.8 135.85-34.8L135.85-34.8Q137.9-34.8 140.57-34.55 143.25-34.3 145.3-33.9L145.3-33.9 145.3-30.75Q143.35-31.05 141-31.25 138.65-31.45 137.05-31.45L137.05-31.45Q132.7-31.45 130.6-30.88 128.5-30.3 127.82-29 127.15-27.7 127.15-25.2L127.15-25.2Q127.15-23.3 127.55-22.03 127.95-20.75 129.27-19.93 130.6-19.1 133.25-19.1L133.25-19.1 137.15-19.1 137.15-15.7 133.25-15.7Q130.5-15.7 129.12-15 127.75-14.3 127.32-12.98 126.9-11.65 126.9-9.3L126.9-9.3Q126.9-6.6 127.85-5.23 128.8-3.85 130.67-3.38 132.55-2.9 136-2.9L136-2.9Q139.25-2.9 141.65-3.3L141.65-3.3 141.65-19.1ZM182.3 0L177.8 0 172.8-18.95 172.45-18.95 167.5 0 162.95 0 156-25.5 159.9-25.5 165.2-4.9 165.5-4.9 170.8-25.5 174.6-25.5 179.95-4.9 180.25-4.9 185.5-25.5 189.3-25.5 182.3 0ZM201.05-32.8L197-32.8 197-37.15 201.05-37.15 201.05-32.8ZM200.9 0L197.1 0 197.1-25.5 200.9-25.5 200.9 0ZM214.95 0L211.15 0 211.15-37.15 214.95-37.15 214.95 0ZM229 0L225.2 0 225.2-37.15 229-37.15 229 0Z" opacity="1" transform="matrix(1,0,0,1,0,0)" fill="black" class="slogan-text-1" id="SvgjsPath6280"></path></svg></g></svg></g></svg></g></svg></g></svg></g></svg></g></svg></g><g><path d="M244.873 0c68.262 0 123.6 55.338 123.6 123.6 0 68.262-55.338 123.6-123.6 123.6-34.781 0-66.207-14.367-88.667-37.489h5.257c21.579 20.906 50.992 33.774 83.41 33.774 66.21 0 119.885-53.674 119.885-119.885 0-66.21-53.674-119.885-119.885-119.885-32.418 0-61.832 12.868-83.41 33.774l-5.257 0c22.46-23.123 53.886-37.489 88.667-37.489z" fill="black" stroke="transparent"></path></g></svg></g><defs><mask></mask></defs></svg><rect width="395.52" height="247.2" fill="black" stroke="none" visibility="hidden"></rect></g></mask><linearGradient x1="0.054" x2="0.941" y1="0.5" y2="0.5" id="74a60877-fb28-4c8e-a458-251cbb791907"><stop stop-color="#26282a" offset="0"></stop><stop stop-color="#9e9fa0" offset="0.498"></stop><stop stop-color="#26282a" offset="1"></stop></linearGradient><rect width="395.52" height="247.20000000000002" fill="url(#74a60877-fb28-4c8e-a458-251cbb791907)" mask="url(#171a2c72-a953-4867-b159-bed86dd7bb0b)" data-fill-palette-color="primary"></rect><mask id="8d4f177a-77af-4253-a85c-a6618ee6d3d8"><g id="SvgjsG6293"><svg viewBox="0 0 395.52 247.2" height="247.2" width="395.52"><g><svg></svg></g><g><svg viewBox="0 0 395.52 247.2" height="247.2" width="395.52"><g transform="matrix(1,0,0,1,76.4869365977565,47.215199999999996)"><svg viewBox="0 0 242.546126804487 152.7696" height="152.7696" width="242.546126804487"><g><svg viewBox="0 0 242.546126804487 152.7696" height="152.7696" width="242.546126804487"><g><svg viewBox="0 0 244.43135999999998 153.9570290675332" height="152.7696" width="242.546126804487"><g><svg viewBox="0 0 244.43135999999998 153.9570290675332" height="153.9570290675332" width="244.43135999999998"><g id="SvgjsG6292"><svg viewBox="0 0 244.43135999999998 153.9570290675332" height="153.9570290675332" width="244.43135999999998" id="SvgjsSvg6291"><g><svg viewBox="0 0 244.43135999999998 83.03706486008836" height="83.03706486008836" width="244.43135999999998"><g transform="matrix(1,0,0,1,0,0)"><svg width="244.43135999999998" viewBox="2.25 -33.95 101.84 34.6" height="83.03706486008836" data-palette-color="url(#74a60877-fb28-4c8e-a458-251cbb791907)"></svg></g></svg></g><g transform="matrix(1,0,0,1,0,102.64012298399858)"><svg viewBox="0 0 244.43135999999998 51.31690608353461" height="51.31690608353461" width="244.43135999999998"><g transform="matrix(1,0,0,1,0,0)"><svg width="244.43135999999998" viewBox="3.7 -37.15 225.3 47.3" height="51.31690608353461" data-palette-color="url(#67fac3eb-25dc-48e4-bb77-7faff3dee534)"><path d="M19.25 0L19.1-3.6 18.8-3.6Q18.05-1.65 16.35-0.63 14.65 0.4 11.4 0.4L11.4 0.4Q8.15 0.4 6.5-0.6 4.85-1.6 4.28-3.65 3.7-5.7 3.7-9.4L3.7-9.4 3.7-25.5 7.5-25.5 7.5-10.8Q7.5-7.2 7.9-5.65 8.3-4.1 9.38-3.6 10.45-3.1 12.95-3.1L12.95-3.1Q15.7-3.1 16.95-4.13 18.2-5.15 18.53-6.98 18.85-8.8 18.85-12.25L18.85-12.25 18.85-25.5 22.65-25.5 22.65 0 19.25 0ZM48.05 0L48.05-14.7Q48.05-18.35 47.67-19.88 47.3-21.4 46.22-21.9 45.15-22.4 42.65-22.4L42.65-22.4Q39.9-22.4 38.62-21.38 37.35-20.35 37.02-18.5 36.7-16.65 36.7-13.25L36.7-13.25 36.7 0 32.9 0 32.9-25.5 36.3-25.5 36.5-21.9 36.75-21.9Q37.5-23.85 39.22-24.88 40.95-25.9 44.2-25.9L44.2-25.9Q47.45-25.9 49.07-24.9 50.7-23.9 51.27-21.85 51.85-19.8 51.85-16.1L51.85-16.1 51.85 0 48.05 0ZM66-32.8L61.95-32.8 61.95-37.15 66-37.15 66-32.8ZM65.85 0L62.05 0 62.05-25.5 65.85-25.5 65.85 0ZM81.75 0L77.95 0 77.95-22.2 73.5-22.2 73.5-25.5 77.95-25.5 77.95-32.9 81.75-32.9 81.75-25.5 87-25.5 87-22.2 81.75-22.2 81.75 0ZM103.25 10.15Q99.45 10.15 95.65 9.75L95.65 9.75 95.65 6.6Q99.75 6.85 102.45 6.85L102.45 6.85Q105.8 6.85 107.32 6.03 108.85 5.2 109.3 3.43 109.75 1.65 109.75-2.1L109.75-2.1 109.75-3.4 109.5-3.4Q108.85-1.7 107.17-0.73 105.5 0.25 102.25 0.25L102.25 0.25Q98.95 0.25 97.32-0.78 95.7-1.8 95.15-3.9 94.6-6 94.6-9.9L94.6-9.9 94.6-25.5 98.4-25.5 98.4-10.85Q98.4-7.25 98.8-5.7 99.2-4.15 100.27-3.65 101.35-3.15 103.85-3.15L103.85-3.15Q106.6-3.15 107.85-4.2 109.1-5.25 109.42-7.08 109.75-8.9 109.75-12.35L109.75-12.35 109.75-25.5 113.55-25.5 113.55-3.3Q113.55 2 112.82 4.78 112.1 7.55 109.92 8.85 107.75 10.15 103.25 10.15L103.25 10.15ZM141.65-19.1L150.5-19.1 150.5-15.7 145.45-15.7 145.45-0.5Q143.9-0.15 141.12 0.13 138.35 0.4 135.85 0.4L135.85 0.4Q130.55 0.4 127.77-0.7 125-1.8 124.02-3.83 123.05-5.85 123.05-9.2L123.05-9.2Q123.05-13.15 124.37-14.93 125.7-16.7 128.55-17.45L128.55-17.45 128.55-17.65Q125.85-18.4 124.57-20.25 123.3-22.1 123.3-25.75L123.3-25.75Q123.3-28.75 124.35-30.7 125.4-32.65 128.15-33.73 130.9-34.8 135.85-34.8L135.85-34.8Q137.9-34.8 140.57-34.55 143.25-34.3 145.3-33.9L145.3-33.9 145.3-30.75Q143.35-31.05 141-31.25 138.65-31.45 137.05-31.45L137.05-31.45Q132.7-31.45 130.6-30.88 128.5-30.3 127.82-29 127.15-27.7 127.15-25.2L127.15-25.2Q127.15-23.3 127.55-22.03 127.95-20.75 129.27-19.93 130.6-19.1 133.25-19.1L133.25-19.1 137.15-19.1 137.15-15.7 133.25-15.7Q130.5-15.7 129.12-15 127.75-14.3 127.32-12.98 126.9-11.65 126.9-9.3L126.9-9.3Q126.9-6.6 127.85-5.23 128.8-3.85 130.67-3.38 132.55-2.9 136-2.9L136-2.9Q139.25-2.9 141.65-3.3L141.65-3.3 141.65-19.1ZM182.3 0L177.8 0 172.8-18.95 172.45-18.95 167.5 0 162.95 0 156-25.5 159.9-25.5 165.2-4.9 165.5-4.9 170.8-25.5 174.6-25.5 179.95-4.9 180.25-4.9 185.5-25.5 189.3-25.5 182.3 0ZM201.05-32.8L197-32.8 197-37.15 201.05-37.15 201.05-32.8ZM200.9 0L197.1 0 197.1-25.5 200.9-25.5 200.9 0ZM214.95 0L211.15 0 211.15-37.15 214.95-37.15 214.95 0ZM229 0L225.2 0 225.2-37.15 229-37.15 229 0Z" opacity="1" transform="matrix(1,0,0,1,0,0)" fill="white" class="slogan-text-1" id="SvgjsPath6290"></path></svg></g></svg></g></svg></g></svg></g></svg></g></svg></g></svg></g><g><path d="M244.873 0c68.262 0 123.6 55.338 123.6 123.6 0 68.262-55.338 123.6-123.6 123.6-34.781 0-66.207-14.367-88.667-37.489h5.257c21.579 20.906 50.992 33.774 83.41 33.774 66.21 0 119.885-53.674 119.885-119.885 0-66.21-53.674-119.885-119.885-119.885-32.418 0-61.832 12.868-83.41 33.774l-5.257 0c22.46-23.123 53.886-37.489 88.667-37.489z" fill="black" stroke="transparent"></path></g></svg></g><defs><mask></mask></defs><mask><g id="SvgjsG6289"><svg viewBox="0 0 395.52 247.2" height="247.2" width="395.52"><g><svg></svg></g><g><svg viewBox="0 0 395.52 247.2" height="247.2" width="395.52"><g transform="matrix(1,0,0,1,76.4869365977565,47.215199999999996)"><svg viewBox="0 0 242.546126804487 152.7696" height="152.7696" width="242.546126804487"><g><svg viewBox="0 0 242.546126804487 152.7696" height="152.7696" width="242.546126804487"><g><svg viewBox="0 0 244.43135999999998 153.9570290675332" height="152.7696" width="242.546126804487"><g><svg viewBox="0 0 244.43135999999998 153.9570290675332" height="153.9570290675332" width="244.43135999999998"><g id="SvgjsG6288"><svg viewBox="0 0 244.43135999999998 153.9570290675332" height="153.9570290675332" width="244.43135999999998" id="SvgjsSvg6287"><g><svg viewBox="0 0 244.43135999999998 83.03706486008836" height="83.03706486008836" width="244.43135999999998"><g transform="matrix(1,0,0,1,0,0)"><svg width="244.43135999999998" viewBox="2.25 -33.95 101.84 34.6" height="83.03706486008836" data-palette-color="url(#74a60877-fb28-4c8e-a458-251cbb791907)"><path d="M12.3 0.65L12.3 0.65Q9.35 0.65 6.73 0 4.1-0.65 2.25-1.75L2.25-1.75 2.85-8.45Q5.1-7.05 7.58-6.28 10.05-5.5 12.15-5.5L12.15-5.5Q14.55-5.5 16.05-6.5 17.55-7.5 17.55-9.15L17.55-9.15Q17.55-10.35 16.8-11.03 16.05-11.7 14.85-12.2 13.65-12.7 12.2-13.3L12.2-13.3Q10.55-14 8.83-14.75 7.1-15.5 5.63-16.57 4.15-17.65 3.23-19.35 2.3-21.05 2.3-23.65L2.3-23.65Q2.3-28.4 5.55-31.18 8.8-33.95 14.6-33.95L14.6-33.95Q19.05-33.95 23.6-32.15L23.6-32.15 22.5-25.55Q20.65-26.6 18.53-27.2 16.4-27.8 14.5-27.8L14.5-27.8Q12.15-27.8 10.85-26.88 9.55-25.95 9.55-24.4L9.55-24.4Q9.55-22.95 10.63-22.18 11.7-21.4 13.35-20.7L13.35-20.7Q15-20 16.98-19.28 18.95-18.55 20.73-17.43 22.5-16.3 23.65-14.43 24.8-12.55 24.8-9.6L24.8-9.6Q24.8-4.75 21.53-2.05 18.25 0.65 12.3 0.65ZM38.2 0L30.95 0 30.95-33.3 38.2-33.3 38.2 0ZM61.14 0.65L61.14 0.65Q53.2 0.65 48.67-3.65 44.14-7.95 44.14-15.8L44.14-15.8Q44.14-21.25 46.27-25.28 48.39-29.3 52.27-31.55 56.14-33.8 61.3-33.8L61.3-33.8Q63.45-33.8 65.44-33.4 67.44-33 69.3-32.3L69.3-32.3 67.94-25.85Q66.3-26.6 64.64-27 63-27.4 61.34-27.4L61.34-27.4Q56.74-27.4 54.12-24.4 51.49-21.4 51.49-16.5L51.49-16.5Q51.49-11.45 54.3-8.65 57.09-5.85 62.05-5.85L62.05-5.85Q63.55-5.85 65.17-6.13 66.8-6.4 68.34-6.9L68.34-6.9 69.44-0.75Q65.8 0.65 61.14 0.65ZM82.59 0L75.29 0 75.29-33.3 82.59-33.3 82.59-20.4 96.74-20.4 96.74-33.3 104.09-33.3 104.09 0 96.74 0 96.74-14.2 82.59-14.2 82.59 0Z" opacity="1" transform="matrix(1,0,0,1,0,0)" fill="black" class="wordmark-text-0" id="SvgjsPath6286"></path></svg></g></svg></g><g transform="matrix(1,0,0,1,0,102.64012298399858)"><svg viewBox="0 0 244.43135999999998 51.31690608353461" height="51.31690608353461" width="244.43135999999998"><g transform="matrix(1,0,0,1,0,0)"><svg width="244.43135999999998" viewBox="3.7 -37.15 225.3 47.3" height="51.31690608353461" data-palette-color="url(#67fac3eb-25dc-48e4-bb77-7faff3dee534)"><path d="M19.25 0L19.1-3.6 18.8-3.6Q18.05-1.65 16.35-0.63 14.65 0.4 11.4 0.4L11.4 0.4Q8.15 0.4 6.5-0.6 4.85-1.6 4.28-3.65 3.7-5.7 3.7-9.4L3.7-9.4 3.7-25.5 7.5-25.5 7.5-10.8Q7.5-7.2 7.9-5.65 8.3-4.1 9.38-3.6 10.45-3.1 12.95-3.1L12.95-3.1Q15.7-3.1 16.95-4.13 18.2-5.15 18.53-6.98 18.85-8.8 18.85-12.25L18.85-12.25 18.85-25.5 22.65-25.5 22.65 0 19.25 0ZM48.05 0L48.05-14.7Q48.05-18.35 47.67-19.88 47.3-21.4 46.22-21.9 45.15-22.4 42.65-22.4L42.65-22.4Q39.9-22.4 38.62-21.38 37.35-20.35 37.02-18.5 36.7-16.65 36.7-13.25L36.7-13.25 36.7 0 32.9 0 32.9-25.5 36.3-25.5 36.5-21.9 36.75-21.9Q37.5-23.85 39.22-24.88 40.95-25.9 44.2-25.9L44.2-25.9Q47.45-25.9 49.07-24.9 50.7-23.9 51.27-21.85 51.85-19.8 51.85-16.1L51.85-16.1 51.85 0 48.05 0ZM66-32.8L61.95-32.8 61.95-37.15 66-37.15 66-32.8ZM65.85 0L62.05 0 62.05-25.5 65.85-25.5 65.85 0ZM81.75 0L77.95 0 77.95-22.2 73.5-22.2 73.5-25.5 77.95-25.5 77.95-32.9 81.75-32.9 81.75-25.5 87-25.5 87-22.2 81.75-22.2 81.75 0ZM103.25 10.15Q99.45 10.15 95.65 9.75L95.65 9.75 95.65 6.6Q99.75 6.85 102.45 6.85L102.45 6.85Q105.8 6.85 107.32 6.03 108.85 5.2 109.3 3.43 109.75 1.65 109.75-2.1L109.75-2.1 109.75-3.4 109.5-3.4Q108.85-1.7 107.17-0.73 105.5 0.25 102.25 0.25L102.25 0.25Q98.95 0.25 97.32-0.78 95.7-1.8 95.15-3.9 94.6-6 94.6-9.9L94.6-9.9 94.6-25.5 98.4-25.5 98.4-10.85Q98.4-7.25 98.8-5.7 99.2-4.15 100.27-3.65 101.35-3.15 103.85-3.15L103.85-3.15Q106.6-3.15 107.85-4.2 109.1-5.25 109.42-7.08 109.75-8.9 109.75-12.35L109.75-12.35 109.75-25.5 113.55-25.5 113.55-3.3Q113.55 2 112.82 4.78 112.1 7.55 109.92 8.85 107.75 10.15 103.25 10.15L103.25 10.15ZM141.65-19.1L150.5-19.1 150.5-15.7 145.45-15.7 145.45-0.5Q143.9-0.15 141.12 0.13 138.35 0.4 135.85 0.4L135.85 0.4Q130.55 0.4 127.77-0.7 125-1.8 124.02-3.83 123.05-5.85 123.05-9.2L123.05-9.2Q123.05-13.15 124.37-14.93 125.7-16.7 128.55-17.45L128.55-17.45 128.55-17.65Q125.85-18.4 124.57-20.25 123.3-22.1 123.3-25.75L123.3-25.75Q123.3-28.75 124.35-30.7 125.4-32.65 128.15-33.73 130.9-34.8 135.85-34.8L135.85-34.8Q137.9-34.8 140.57-34.55 143.25-34.3 145.3-33.9L145.3-33.9 145.3-30.75Q143.35-31.05 141-31.25 138.65-31.45 137.05-31.45L137.05-31.45Q132.7-31.45 130.6-30.88 128.5-30.3 127.82-29 127.15-27.7 127.15-25.2L127.15-25.2Q127.15-23.3 127.55-22.03 127.95-20.75 129.27-19.93 130.6-19.1 133.25-19.1L133.25-19.1 137.15-19.1 137.15-15.7 133.25-15.7Q130.5-15.7 129.12-15 127.75-14.3 127.32-12.98 126.9-11.65 126.9-9.3L126.9-9.3Q126.9-6.6 127.85-5.23 128.8-3.85 130.67-3.38 132.55-2.9 136-2.9L136-2.9Q139.25-2.9 141.65-3.3L141.65-3.3 141.65-19.1ZM182.3 0L177.8 0 172.8-18.95 172.45-18.95 167.5 0 162.95 0 156-25.5 159.9-25.5 165.2-4.9 165.5-4.9 170.8-25.5 174.6-25.5 179.95-4.9 180.25-4.9 185.5-25.5 189.3-25.5 182.3 0ZM201.05-32.8L197-32.8 197-37.15 201.05-37.15 201.05-32.8ZM200.9 0L197.1 0 197.1-25.5 200.9-25.5 200.9 0ZM214.95 0L211.15 0 211.15-37.15 214.95-37.15 214.95 0ZM229 0L225.2 0 225.2-37.15 229-37.15 229 0Z" opacity="1" transform="matrix(1,0,0,1,0,0)" fill="black" class="slogan-text-1" id="SvgjsPath6285"></path></svg></g></svg></g></svg></g></svg></g></svg></g></svg></g></svg></g><g><path d="M244.873 0c68.262 0 123.6 55.338 123.6 123.6 0 68.262-55.338 123.6-123.6 123.6-34.781 0-66.207-14.367-88.667-37.489h5.257c21.579 20.906 50.992 33.774 83.41 33.774 66.21 0 119.885-53.674 119.885-119.885 0-66.21-53.674-119.885-119.885-119.885-32.418 0-61.832 12.868-83.41 33.774l-5.257 0c22.46-23.123 53.886-37.489 88.667-37.489z" fill="black" stroke="transparent"></path></g></svg></g><defs><mask></mask></defs></svg><rect width="395.52" height="247.2" fill="black" stroke="none" visibility="hidden"></rect></g></mask></svg><rect width="395.52" height="247.2" fill="black" stroke="none" visibility="hidden"></rect></g></mask><linearGradient x1="0.054" x2="0.941" y1="0.5" y2="0.5" id="67fac3eb-25dc-48e4-bb77-7faff3dee534"><stop stop-color="#26282a" offset="0"></stop><stop stop-color="#9e9fa0" offset="0.498"></stop><stop stop-color="#26282a" offset="1"></stop></linearGradient><rect width="395.52" height="247.20000000000005" fill="url(#67fac3eb-25dc-48e4-bb77-7faff3dee534)" mask="url(#8d4f177a-77af-4253-a85c-a6618ee6d3d8)" data-fill-palette-color="secondary"></rect><mask id="6e05c97d-aa9f-4eaa-91c4-6d9a404cb9f4"><g id="SvgjsG6328"><svg viewBox="0 0 395.52 247.2" height="247.2" width="395.52"><g><svg></svg></g><g><svg viewBox="0 0 395.52 247.2" height="247.2" width="395.52"><g transform="matrix(1,0,0,1,76.4869365977565,47.215199999999996)"><svg viewBox="0 0 242.546126804487 152.7696" height="152.7696" width="242.546126804487"><g><svg viewBox="0 0 242.546126804487 152.7696" height="152.7696" width="242.546126804487"><g><svg viewBox="0 0 244.43135999999998 153.9570290675332" height="152.7696" width="242.546126804487"><g><svg viewBox="0 0 244.43135999999998 153.9570290675332" height="153.9570290675332" width="244.43135999999998"><g id="SvgjsG6327"><svg viewBox="0 0 244.43135999999998 153.9570290675332" height="153.9570290675332" width="244.43135999999998" id="SvgjsSvg6326"><g><svg viewBox="0 0 244.43135999999998 83.03706486008836" height="83.03706486008836" width="244.43135999999998"><g transform="matrix(1,0,0,1,0,0)"><svg width="244.43135999999998" viewBox="2.25 -33.95 101.84 34.6" height="83.03706486008836" data-palette-color="url(#74a60877-fb28-4c8e-a458-251cbb791907)"></svg></g></svg></g><g transform="matrix(1,0,0,1,0,102.64012298399858)"><svg viewBox="0 0 244.43135999999998 51.31690608353461" height="51.31690608353461" width="244.43135999999998"><g transform="matrix(1,0,0,1,0,0)"><svg width="244.43135999999998" viewBox="3.7 -37.15 225.3 47.3" height="51.31690608353461" data-palette-color="url(#67fac3eb-25dc-48e4-bb77-7faff3dee534)"></svg></g></svg></g></svg></g></svg></g></svg></g></svg></g></svg></g><g><path d="M244.873 0c68.262 0 123.6 55.338 123.6 123.6 0 68.262-55.338 123.6-123.6 123.6-34.781 0-66.207-14.367-88.667-37.489h5.257c21.579 20.906 50.992 33.774 83.41 33.774 66.21 0 119.885-53.674 119.885-119.885 0-66.21-53.674-119.885-119.885-119.885-32.418 0-61.832 12.868-83.41 33.774l-5.257 0c22.46-23.123 53.886-37.489 88.667-37.489z" fill="white" stroke="transparent"></path></g></svg></g><defs><mask></mask></defs><mask><g id="SvgjsG6325"><svg viewBox="0 0 395.52 247.2" height="247.2" width="395.52"><g><svg></svg></g><g><svg viewBox="0 0 395.52 247.2" height="247.2" width="395.52"><g transform="matrix(1,0,0,1,76.4869365977565,47.215199999999996)"><svg viewBox="0 0 242.546126804487 152.7696" height="152.7696" width="242.546126804487"><g><svg viewBox="0 0 242.546126804487 152.7696" height="152.7696" width="242.546126804487"><g><svg viewBox="0 0 244.43135999999998 153.9570290675332" height="152.7696" width="242.546126804487"><g><svg viewBox="0 0 244.43135999999998 153.9570290675332" height="153.9570290675332" width="244.43135999999998"><g id="SvgjsG6324"><svg viewBox="0 0 244.43135999999998 153.9570290675332" height="153.9570290675332" width="244.43135999999998" id="SvgjsSvg6323"><g><svg viewBox="0 0 244.43135999999998 83.03706486008836" height="83.03706486008836" width="244.43135999999998"><g transform="matrix(1,0,0,1,0,0)"><svg width="244.43135999999998" viewBox="2.25 -33.95 101.84 34.6" height="83.03706486008836" data-palette-color="url(#74a60877-fb28-4c8e-a458-251cbb791907)"><path d="M12.3 0.65L12.3 0.65Q9.35 0.65 6.73 0 4.1-0.65 2.25-1.75L2.25-1.75 2.85-8.45Q5.1-7.05 7.58-6.28 10.05-5.5 12.15-5.5L12.15-5.5Q14.55-5.5 16.05-6.5 17.55-7.5 17.55-9.15L17.55-9.15Q17.55-10.35 16.8-11.03 16.05-11.7 14.85-12.2 13.65-12.7 12.2-13.3L12.2-13.3Q10.55-14 8.83-14.75 7.1-15.5 5.63-16.57 4.15-17.65 3.23-19.35 2.3-21.05 2.3-23.65L2.3-23.65Q2.3-28.4 5.55-31.18 8.8-33.95 14.6-33.95L14.6-33.95Q19.05-33.95 23.6-32.15L23.6-32.15 22.5-25.55Q20.65-26.6 18.53-27.2 16.4-27.8 14.5-27.8L14.5-27.8Q12.15-27.8 10.85-26.88 9.55-25.95 9.55-24.4L9.55-24.4Q9.55-22.95 10.63-22.18 11.7-21.4 13.35-20.7L13.35-20.7Q15-20 16.98-19.28 18.95-18.55 20.73-17.43 22.5-16.3 23.65-14.43 24.8-12.55 24.8-9.6L24.8-9.6Q24.8-4.75 21.53-2.05 18.25 0.65 12.3 0.65ZM38.2 0L30.95 0 30.95-33.3 38.2-33.3 38.2 0ZM61.14 0.65L61.14 0.65Q53.2 0.65 48.67-3.65 44.14-7.95 44.14-15.8L44.14-15.8Q44.14-21.25 46.27-25.28 48.39-29.3 52.27-31.55 56.14-33.8 61.3-33.8L61.3-33.8Q63.45-33.8 65.44-33.4 67.44-33 69.3-32.3L69.3-32.3 67.94-25.85Q66.3-26.6 64.64-27 63-27.4 61.34-27.4L61.34-27.4Q56.74-27.4 54.12-24.4 51.49-21.4 51.49-16.5L51.49-16.5Q51.49-11.45 54.3-8.65 57.09-5.85 62.05-5.85L62.05-5.85Q63.55-5.85 65.17-6.13 66.8-6.4 68.34-6.9L68.34-6.9 69.44-0.75Q65.8 0.65 61.14 0.65ZM82.59 0L75.29 0 75.29-33.3 82.59-33.3 82.59-20.4 96.74-20.4 96.74-33.3 104.09-33.3 104.09 0 96.74 0 96.74-14.2 82.59-14.2 82.59 0Z" opacity="1" transform="matrix(1,0,0,1,0,0)" fill="black" class="wordmark-text-0" id="SvgjsPath6322"></path></svg></g></svg></g><g transform="matrix(1,0,0,1,0,102.64012298399858)"><svg viewBox="0 0 244.43135999999998 51.31690608353461" height="51.31690608353461" width="244.43135999999998"><g transform="matrix(1,0,0,1,0,0)"><svg width="244.43135999999998" viewBox="3.7 -37.15 225.3 47.3" height="51.31690608353461" data-palette-color="url(#67fac3eb-25dc-48e4-bb77-7faff3dee534)"><path d="M19.25 0L19.1-3.6 18.8-3.6Q18.05-1.65 16.35-0.63 14.65 0.4 11.4 0.4L11.4 0.4Q8.15 0.4 6.5-0.6 4.85-1.6 4.28-3.65 3.7-5.7 3.7-9.4L3.7-9.4 3.7-25.5 7.5-25.5 7.5-10.8Q7.5-7.2 7.9-5.65 8.3-4.1 9.38-3.6 10.45-3.1 12.95-3.1L12.95-3.1Q15.7-3.1 16.95-4.13 18.2-5.15 18.53-6.98 18.85-8.8 18.85-12.25L18.85-12.25 18.85-25.5 22.65-25.5 22.65 0 19.25 0ZM48.05 0L48.05-14.7Q48.05-18.35 47.67-19.88 47.3-21.4 46.22-21.9 45.15-22.4 42.65-22.4L42.65-22.4Q39.9-22.4 38.62-21.38 37.35-20.35 37.02-18.5 36.7-16.65 36.7-13.25L36.7-13.25 36.7 0 32.9 0 32.9-25.5 36.3-25.5 36.5-21.9 36.75-21.9Q37.5-23.85 39.22-24.88 40.95-25.9 44.2-25.9L44.2-25.9Q47.45-25.9 49.07-24.9 50.7-23.9 51.27-21.85 51.85-19.8 51.85-16.1L51.85-16.1 51.85 0 48.05 0ZM66-32.8L61.95-32.8 61.95-37.15 66-37.15 66-32.8ZM65.85 0L62.05 0 62.05-25.5 65.85-25.5 65.85 0ZM81.75 0L77.95 0 77.95-22.2 73.5-22.2 73.5-25.5 77.95-25.5 77.95-32.9 81.75-32.9 81.75-25.5 87-25.5 87-22.2 81.75-22.2 81.75 0ZM103.25 10.15Q99.45 10.15 95.65 9.75L95.65 9.75 95.65 6.6Q99.75 6.85 102.45 6.85L102.45 6.85Q105.8 6.85 107.32 6.03 108.85 5.2 109.3 3.43 109.75 1.65 109.75-2.1L109.75-2.1 109.75-3.4 109.5-3.4Q108.85-1.7 107.17-0.73 105.5 0.25 102.25 0.25L102.25 0.25Q98.95 0.25 97.32-0.78 95.7-1.8 95.15-3.9 94.6-6 94.6-9.9L94.6-9.9 94.6-25.5 98.4-25.5 98.4-10.85Q98.4-7.25 98.8-5.7 99.2-4.15 100.27-3.65 101.35-3.15 103.85-3.15L103.85-3.15Q106.6-3.15 107.85-4.2 109.1-5.25 109.42-7.08 109.75-8.9 109.75-12.35L109.75-12.35 109.75-25.5 113.55-25.5 113.55-3.3Q113.55 2 112.82 4.78 112.1 7.55 109.92 8.85 107.75 10.15 103.25 10.15L103.25 10.15ZM141.65-19.1L150.5-19.1 150.5-15.7 145.45-15.7 145.45-0.5Q143.9-0.15 141.12 0.13 138.35 0.4 135.85 0.4L135.85 0.4Q130.55 0.4 127.77-0.7 125-1.8 124.02-3.83 123.05-5.85 123.05-9.2L123.05-9.2Q123.05-13.15 124.37-14.93 125.7-16.7 128.55-17.45L128.55-17.45 128.55-17.65Q125.85-18.4 124.57-20.25 123.3-22.1 123.3-25.75L123.3-25.75Q123.3-28.75 124.35-30.7 125.4-32.65 128.15-33.73 130.9-34.8 135.85-34.8L135.85-34.8Q137.9-34.8 140.57-34.55 143.25-34.3 145.3-33.9L145.3-33.9 145.3-30.75Q143.35-31.05 141-31.25 138.65-31.45 137.05-31.45L137.05-31.45Q132.7-31.45 130.6-30.88 128.5-30.3 127.82-29 127.15-27.7 127.15-25.2L127.15-25.2Q127.15-23.3 127.55-22.03 127.95-20.75 129.27-19.93 130.6-19.1 133.25-19.1L133.25-19.1 137.15-19.1 137.15-15.7 133.25-15.7Q130.5-15.7 129.12-15 127.75-14.3 127.32-12.98 126.9-11.65 126.9-9.3L126.9-9.3Q126.9-6.6 127.85-5.23 128.8-3.85 130.67-3.38 132.55-2.9 136-2.9L136-2.9Q139.25-2.9 141.65-3.3L141.65-3.3 141.65-19.1ZM182.3 0L177.8 0 172.8-18.95 172.45-18.95 167.5 0 162.95 0 156-25.5 159.9-25.5 165.2-4.9 165.5-4.9 170.8-25.5 174.6-25.5 179.95-4.9 180.25-4.9 185.5-25.5 189.3-25.5 182.3 0ZM201.05-32.8L197-32.8 197-37.15 201.05-37.15 201.05-32.8ZM200.9 0L197.1 0 197.1-25.5 200.9-25.5 200.9 0ZM214.95 0L211.15 0 211.15-37.15 214.95-37.15 214.95 0ZM229 0L225.2 0 225.2-37.15 229-37.15 229 0Z" opacity="1" transform="matrix(1,0,0,1,0,0)" fill="black" class="slogan-text-1" id="SvgjsPath6321"></path></svg></g></svg></g></svg></g></svg></g></svg></g></svg></g></svg></g><g><path d="M244.873 0c68.262 0 123.6 55.338 123.6 123.6 0 68.262-55.338 123.6-123.6 123.6-34.781 0-66.207-14.367-88.667-37.489h5.257c21.579 20.906 50.992 33.774 83.41 33.774 66.21 0 119.885-53.674 119.885-119.885 0-66.21-53.674-119.885-119.885-119.885-32.418 0-61.832 12.868-83.41 33.774l-5.257 0c22.46-23.123 53.886-37.489 88.667-37.489z" fill="black" stroke="transparent"></path></g></svg></g><defs><mask></mask></defs></svg><rect width="395.52" height="247.2" fill="black" stroke="none" visibility="hidden"></rect></g></mask><mask><g id="SvgjsG6320"><svg viewBox="0 0 395.52 247.2" height="247.2" width="395.52"><g><svg></svg></g><g><svg viewBox="0 0 395.52 247.2" height="247.2" width="395.52"><g transform="matrix(1,0,0,1,76.4869365977565,47.215199999999996)"><svg viewBox="0 0 242.546126804487 152.7696" height="152.7696" width="242.546126804487"><g><svg viewBox="0 0 242.546126804487 152.7696" height="152.7696" width="242.546126804487"><g><svg viewBox="0 0 244.43135999999998 153.9570290675332" height="152.7696" width="242.546126804487"><g><svg viewBox="0 0 244.43135999999998 153.9570290675332" height="153.9570290675332" width="244.43135999999998"><g id="SvgjsG6319"><svg viewBox="0 0 244.43135999999998 153.9570290675332" height="153.9570290675332" width="244.43135999999998" id="SvgjsSvg6318"><g><svg viewBox="0 0 244.43135999999998 83.03706486008836" height="83.03706486008836" width="244.43135999999998"><g transform="matrix(1,0,0,1,0,0)"><svg width="244.43135999999998" viewBox="2.25 -33.95 101.84 34.6" height="83.03706486008836" data-palette-color="url(#74a60877-fb28-4c8e-a458-251cbb791907)"></svg></g></svg></g><g transform="matrix(1,0,0,1,0,102.64012298399858)"><svg viewBox="0 0 244.43135999999998 51.31690608353461" height="51.31690608353461" width="244.43135999999998"><g transform="matrix(1,0,0,1,0,0)"><svg width="244.43135999999998" viewBox="3.7 -37.15 225.3 47.3" height="51.31690608353461" data-palette-color="url(#67fac3eb-25dc-48e4-bb77-7faff3dee534)"><path d="M19.25 0L19.1-3.6 18.8-3.6Q18.05-1.65 16.35-0.63 14.65 0.4 11.4 0.4L11.4 0.4Q8.15 0.4 6.5-0.6 4.85-1.6 4.28-3.65 3.7-5.7 3.7-9.4L3.7-9.4 3.7-25.5 7.5-25.5 7.5-10.8Q7.5-7.2 7.9-5.65 8.3-4.1 9.38-3.6 10.45-3.1 12.95-3.1L12.95-3.1Q15.7-3.1 16.95-4.13 18.2-5.15 18.53-6.98 18.85-8.8 18.85-12.25L18.85-12.25 18.85-25.5 22.65-25.5 22.65 0 19.25 0ZM48.05 0L48.05-14.7Q48.05-18.35 47.67-19.88 47.3-21.4 46.22-21.9 45.15-22.4 42.65-22.4L42.65-22.4Q39.9-22.4 38.62-21.38 37.35-20.35 37.02-18.5 36.7-16.65 36.7-13.25L36.7-13.25 36.7 0 32.9 0 32.9-25.5 36.3-25.5 36.5-21.9 36.75-21.9Q37.5-23.85 39.22-24.88 40.95-25.9 44.2-25.9L44.2-25.9Q47.45-25.9 49.07-24.9 50.7-23.9 51.27-21.85 51.85-19.8 51.85-16.1L51.85-16.1 51.85 0 48.05 0ZM66-32.8L61.95-32.8 61.95-37.15 66-37.15 66-32.8ZM65.85 0L62.05 0 62.05-25.5 65.85-25.5 65.85 0ZM81.75 0L77.95 0 77.95-22.2 73.5-22.2 73.5-25.5 77.95-25.5 77.95-32.9 81.75-32.9 81.75-25.5 87-25.5 87-22.2 81.75-22.2 81.75 0ZM103.25 10.15Q99.45 10.15 95.65 9.75L95.65 9.75 95.65 6.6Q99.75 6.85 102.45 6.85L102.45 6.85Q105.8 6.85 107.32 6.03 108.85 5.2 109.3 3.43 109.75 1.65 109.75-2.1L109.75-2.1 109.75-3.4 109.5-3.4Q108.85-1.7 107.17-0.73 105.5 0.25 102.25 0.25L102.25 0.25Q98.95 0.25 97.32-0.78 95.7-1.8 95.15-3.9 94.6-6 94.6-9.9L94.6-9.9 94.6-25.5 98.4-25.5 98.4-10.85Q98.4-7.25 98.8-5.7 99.2-4.15 100.27-3.65 101.35-3.15 103.85-3.15L103.85-3.15Q106.6-3.15 107.85-4.2 109.1-5.25 109.42-7.08 109.75-8.9 109.75-12.35L109.75-12.35 109.75-25.5 113.55-25.5 113.55-3.3Q113.55 2 112.82 4.78 112.1 7.55 109.92 8.85 107.75 10.15 103.25 10.15L103.25 10.15ZM141.65-19.1L150.5-19.1 150.5-15.7 145.45-15.7 145.45-0.5Q143.9-0.15 141.12 0.13 138.35 0.4 135.85 0.4L135.85 0.4Q130.55 0.4 127.77-0.7 125-1.8 124.02-3.83 123.05-5.85 123.05-9.2L123.05-9.2Q123.05-13.15 124.37-14.93 125.7-16.7 128.55-17.45L128.55-17.45 128.55-17.65Q125.85-18.4 124.57-20.25 123.3-22.1 123.3-25.75L123.3-25.75Q123.3-28.75 124.35-30.7 125.4-32.65 128.15-33.73 130.9-34.8 135.85-34.8L135.85-34.8Q137.9-34.8 140.57-34.55 143.25-34.3 145.3-33.9L145.3-33.9 145.3-30.75Q143.35-31.05 141-31.25 138.65-31.45 137.05-31.45L137.05-31.45Q132.7-31.45 130.6-30.88 128.5-30.3 127.82-29 127.15-27.7 127.15-25.2L127.15-25.2Q127.15-23.3 127.55-22.03 127.95-20.75 129.27-19.93 130.6-19.1 133.25-19.1L133.25-19.1 137.15-19.1 137.15-15.7 133.25-15.7Q130.5-15.7 129.12-15 127.75-14.3 127.32-12.98 126.9-11.65 126.9-9.3L126.9-9.3Q126.9-6.6 127.85-5.23 128.8-3.85 130.67-3.38 132.55-2.9 136-2.9L136-2.9Q139.25-2.9 141.65-3.3L141.65-3.3 141.65-19.1ZM182.3 0L177.8 0 172.8-18.95 172.45-18.95 167.5 0 162.95 0 156-25.5 159.9-25.5 165.2-4.9 165.5-4.9 170.8-25.5 174.6-25.5 179.95-4.9 180.25-4.9 185.5-25.5 189.3-25.5 182.3 0ZM201.05-32.8L197-32.8 197-37.15 201.05-37.15 201.05-32.8ZM200.9 0L197.1 0 197.1-25.5 200.9-25.5 200.9 0ZM214.95 0L211.15 0 211.15-37.15 214.95-37.15 214.95 0ZM229 0L225.2 0 225.2-37.15 229-37.15 229 0Z" opacity="1" transform="matrix(1,0,0,1,0,0)" fill="black" class="slogan-text-1" id="SvgjsPath6317"></path></svg></g></svg></g></svg></g></svg></g></svg></g></svg></g></svg></g><g><path d="M244.873 0c68.262 0 123.6 55.338 123.6 123.6 0 68.262-55.338 123.6-123.6 123.6-34.781 0-66.207-14.367-88.667-37.489h5.257c21.579 20.906 50.992 33.774 83.41 33.774 66.21 0 119.885-53.674 119.885-119.885 0-66.21-53.674-119.885-119.885-119.885-32.418 0-61.832 12.868-83.41 33.774l-5.257 0c22.46-23.123 53.886-37.489 88.667-37.489z" fill="black" stroke="transparent"></path></g></svg></g><defs><mask></mask></defs><mask><g id="SvgjsG6316"><svg viewBox="0 0 395.52 247.2" height="247.2" width="395.52"><g><svg></svg></g><g><svg viewBox="0 0 395.52 247.2" height="247.2" width="395.52"><g transform="matrix(1,0,0,1,76.4869365977565,47.215199999999996)"><svg viewBox="0 0 242.546126804487 152.7696" height="152.7696" width="242.546126804487"><g><svg viewBox="0 0 242.546126804487 152.7696" height="152.7696" width="242.546126804487"><g><svg viewBox="0 0 244.43135999999998 153.9570290675332" height="152.7696" width="242.546126804487"><g><svg viewBox="0 0 244.43135999999998 153.9570290675332" height="153.9570290675332" width="244.43135999999998"><g id="SvgjsG6315"><svg viewBox="0 0 244.43135999999998 153.9570290675332" height="153.9570290675332" width="244.43135999999998" id="SvgjsSvg6314"><g><svg viewBox="0 0 244.43135999999998 83.03706486008836" height="83.03706486008836" width="244.43135999999998"><g transform="matrix(1,0,0,1,0,0)"><svg width="244.43135999999998" viewBox="2.25 -33.95 101.84 34.6" height="83.03706486008836" data-palette-color="url(#74a60877-fb28-4c8e-a458-251cbb791907)"><path d="M12.3 0.65L12.3 0.65Q9.35 0.65 6.73 0 4.1-0.65 2.25-1.75L2.25-1.75 2.85-8.45Q5.1-7.05 7.58-6.28 10.05-5.5 12.15-5.5L12.15-5.5Q14.55-5.5 16.05-6.5 17.55-7.5 17.55-9.15L17.55-9.15Q17.55-10.35 16.8-11.03 16.05-11.7 14.85-12.2 13.65-12.7 12.2-13.3L12.2-13.3Q10.55-14 8.83-14.75 7.1-15.5 5.63-16.57 4.15-17.65 3.23-19.35 2.3-21.05 2.3-23.65L2.3-23.65Q2.3-28.4 5.55-31.18 8.8-33.95 14.6-33.95L14.6-33.95Q19.05-33.95 23.6-32.15L23.6-32.15 22.5-25.55Q20.65-26.6 18.53-27.2 16.4-27.8 14.5-27.8L14.5-27.8Q12.15-27.8 10.85-26.88 9.55-25.95 9.55-24.4L9.55-24.4Q9.55-22.95 10.63-22.18 11.7-21.4 13.35-20.7L13.35-20.7Q15-20 16.98-19.28 18.95-18.55 20.73-17.43 22.5-16.3 23.65-14.43 24.8-12.55 24.8-9.6L24.8-9.6Q24.8-4.75 21.53-2.05 18.25 0.65 12.3 0.65ZM38.2 0L30.95 0 30.95-33.3 38.2-33.3 38.2 0ZM61.14 0.65L61.14 0.65Q53.2 0.65 48.67-3.65 44.14-7.95 44.14-15.8L44.14-15.8Q44.14-21.25 46.27-25.28 48.39-29.3 52.27-31.55 56.14-33.8 61.3-33.8L61.3-33.8Q63.45-33.8 65.44-33.4 67.44-33 69.3-32.3L69.3-32.3 67.94-25.85Q66.3-26.6 64.64-27 63-27.4 61.34-27.4L61.34-27.4Q56.74-27.4 54.12-24.4 51.49-21.4 51.49-16.5L51.49-16.5Q51.49-11.45 54.3-8.65 57.09-5.85 62.05-5.85L62.05-5.85Q63.55-5.85 65.17-6.13 66.8-6.4 68.34-6.9L68.34-6.9 69.44-0.75Q65.8 0.65 61.14 0.65ZM82.59 0L75.29 0 75.29-33.3 82.59-33.3 82.59-20.4 96.74-20.4 96.74-33.3 104.09-33.3 104.09 0 96.74 0 96.74-14.2 82.59-14.2 82.59 0Z" opacity="1" transform="matrix(1,0,0,1,0,0)" fill="black" class="wordmark-text-0" id="SvgjsPath6313"></path></svg></g></svg></g><g transform="matrix(1,0,0,1,0,102.64012298399858)"><svg viewBox="0 0 244.43135999999998 51.31690608353461" height="51.31690608353461" width="244.43135999999998"><g transform="matrix(1,0,0,1,0,0)"><svg width="244.43135999999998" viewBox="3.7 -37.15 225.3 47.3" height="51.31690608353461" data-palette-color="url(#67fac3eb-25dc-48e4-bb77-7faff3dee534)"><path d="M19.25 0L19.1-3.6 18.8-3.6Q18.05-1.65 16.35-0.63 14.65 0.4 11.4 0.4L11.4 0.4Q8.15 0.4 6.5-0.6 4.85-1.6 4.28-3.65 3.7-5.7 3.7-9.4L3.7-9.4 3.7-25.5 7.5-25.5 7.5-10.8Q7.5-7.2 7.9-5.65 8.3-4.1 9.38-3.6 10.45-3.1 12.95-3.1L12.95-3.1Q15.7-3.1 16.95-4.13 18.2-5.15 18.53-6.98 18.85-8.8 18.85-12.25L18.85-12.25 18.85-25.5 22.65-25.5 22.65 0 19.25 0ZM48.05 0L48.05-14.7Q48.05-18.35 47.67-19.88 47.3-21.4 46.22-21.9 45.15-22.4 42.65-22.4L42.65-22.4Q39.9-22.4 38.62-21.38 37.35-20.35 37.02-18.5 36.7-16.65 36.7-13.25L36.7-13.25 36.7 0 32.9 0 32.9-25.5 36.3-25.5 36.5-21.9 36.75-21.9Q37.5-23.85 39.22-24.88 40.95-25.9 44.2-25.9L44.2-25.9Q47.45-25.9 49.07-24.9 50.7-23.9 51.27-21.85 51.85-19.8 51.85-16.1L51.85-16.1 51.85 0 48.05 0ZM66-32.8L61.95-32.8 61.95-37.15 66-37.15 66-32.8ZM65.85 0L62.05 0 62.05-25.5 65.85-25.5 65.85 0ZM81.75 0L77.95 0 77.95-22.2 73.5-22.2 73.5-25.5 77.95-25.5 77.95-32.9 81.75-32.9 81.75-25.5 87-25.5 87-22.2 81.75-22.2 81.75 0ZM103.25 10.15Q99.45 10.15 95.65 9.75L95.65 9.75 95.65 6.6Q99.75 6.85 102.45 6.85L102.45 6.85Q105.8 6.85 107.32 6.03 108.85 5.2 109.3 3.43 109.75 1.65 109.75-2.1L109.75-2.1 109.75-3.4 109.5-3.4Q108.85-1.7 107.17-0.73 105.5 0.25 102.25 0.25L102.25 0.25Q98.95 0.25 97.32-0.78 95.7-1.8 95.15-3.9 94.6-6 94.6-9.9L94.6-9.9 94.6-25.5 98.4-25.5 98.4-10.85Q98.4-7.25 98.8-5.7 99.2-4.15 100.27-3.65 101.35-3.15 103.85-3.15L103.85-3.15Q106.6-3.15 107.85-4.2 109.1-5.25 109.42-7.08 109.75-8.9 109.75-12.35L109.75-12.35 109.75-25.5 113.55-25.5 113.55-3.3Q113.55 2 112.82 4.78 112.1 7.55 109.92 8.85 107.75 10.15 103.25 10.15L103.25 10.15ZM141.65-19.1L150.5-19.1 150.5-15.7 145.45-15.7 145.45-0.5Q143.9-0.15 141.12 0.13 138.35 0.4 135.85 0.4L135.85 0.4Q130.55 0.4 127.77-0.7 125-1.8 124.02-3.83 123.05-5.85 123.05-9.2L123.05-9.2Q123.05-13.15 124.37-14.93 125.7-16.7 128.55-17.45L128.55-17.45 128.55-17.65Q125.85-18.4 124.57-20.25 123.3-22.1 123.3-25.75L123.3-25.75Q123.3-28.75 124.35-30.7 125.4-32.65 128.15-33.73 130.9-34.8 135.85-34.8L135.85-34.8Q137.9-34.8 140.57-34.55 143.25-34.3 145.3-33.9L145.3-33.9 145.3-30.75Q143.35-31.05 141-31.25 138.65-31.45 137.05-31.45L137.05-31.45Q132.7-31.45 130.6-30.88 128.5-30.3 127.82-29 127.15-27.7 127.15-25.2L127.15-25.2Q127.15-23.3 127.55-22.03 127.95-20.75 129.27-19.93 130.6-19.1 133.25-19.1L133.25-19.1 137.15-19.1 137.15-15.7 133.25-15.7Q130.5-15.7 129.12-15 127.75-14.3 127.32-12.98 126.9-11.65 126.9-9.3L126.9-9.3Q126.9-6.6 127.85-5.23 128.8-3.85 130.67-3.38 132.55-2.9 136-2.9L136-2.9Q139.25-2.9 141.65-3.3L141.65-3.3 141.65-19.1ZM182.3 0L177.8 0 172.8-18.95 172.45-18.95 167.5 0 162.95 0 156-25.5 159.9-25.5 165.2-4.9 165.5-4.9 170.8-25.5 174.6-25.5 179.95-4.9 180.25-4.9 185.5-25.5 189.3-25.5 182.3 0ZM201.05-32.8L197-32.8 197-37.15 201.05-37.15 201.05-32.8ZM200.9 0L197.1 0 197.1-25.5 200.9-25.5 200.9 0ZM214.95 0L211.15 0 211.15-37.15 214.95-37.15 214.95 0ZM229 0L225.2 0 225.2-37.15 229-37.15 229 0Z" opacity="1" transform="matrix(1,0,0,1,0,0)" fill="black" class="slogan-text-1" id="SvgjsPath6312"></path></svg></g></svg></g></svg></g></svg></g></svg></g></svg></g></svg></g><g><path d="M244.873 0c68.262 0 123.6 55.338 123.6 123.6 0 68.262-55.338 123.6-123.6 123.6-34.781 0-66.207-14.367-88.667-37.489h5.257c21.579 20.906 50.992 33.774 83.41 33.774 66.21 0 119.885-53.674 119.885-119.885 0-66.21-53.674-119.885-119.885-119.885-32.418 0-61.832 12.868-83.41 33.774l-5.257 0c22.46-23.123 53.886-37.489 88.667-37.489z" fill="black" stroke="transparent"></path></g></svg></g><defs><mask></mask></defs></svg><rect width="395.52" height="247.2" fill="black" stroke="none" visibility="hidden"></rect></g></mask></svg><rect width="395.52" height="247.2" fill="black" stroke="none" visibility="hidden"></rect></g></mask></svg><rect width="395.52" height="247.2" fill="black" stroke="none" visibility="hidden"></rect></g></mask><linearGradient x1="0.054" x2="0.941" y1="0.5" y2="0.5" id="7cb20708-a2ad-4909-b535-af56c87270c3"><stop stop-color="#26282a" offset="0"></stop><stop stop-color="#9e9fa0" offset="0.498"></stop><stop stop-color="#26282a" offset="1"></stop></linearGradient></svg><rect width="395.52" height="247.2" fill="none" stroke="none" visibility="hidden"></rect></g></svg></g></svg>